<svg width="64" height="64" viewBox="0 0 64 64" fill="none" xmlns="http://www.w3.org/2000/svg">
<g clip-path="url(#clip0_3136_1318)">
<path d="M10.6471 13.3088C14.315 13.3088 17.3015 10.325 17.3015 6.65441C17.3015 2.98384 14.315 0 10.6471 0C6.97915 0 3.99265 2.98384 3.99265 6.65441C3.99265 10.325 6.97915 13.3088 10.6471 13.3088ZM10.6471 2.66176C12.8483 2.66176 14.6397 4.45313 14.6397 6.65441C14.6397 8.85569 12.8483 10.6471 10.6471 10.6471C8.44578 10.6471 6.65441 8.85569 6.65441 6.65441C6.65441 4.45313 8.44578 2.66176 10.6471 2.66176ZM14.6397 15.9706H6.65441C2.9865 15.9706 0 18.9544 0 22.625V45.25H5.32353V63.8824H7.98529V45.25H13.3088V63.8824H15.9706V45.25H21.2941V22.625C21.2941 18.9544 18.3076 15.9706 14.6397 15.9706ZM18.6324 42.5882H2.66176V22.625C2.66176 20.4237 4.45313 18.6324 6.65441 18.6324H14.6397C16.841 18.6324 18.6324 20.4237 18.6324 22.625V42.5882ZM37.2647 6.65441H39.9265V9.31618H37.2647C35.7981 9.31618 34.6029 10.5086 34.6029 11.9779V30.6103H39.9265V33.2721H34.6029V51.9044C34.6029 53.3737 35.7981 54.5662 37.2647 54.5662H39.9265V57.2279H37.2647C34.3288 57.2279 31.9412 54.8403 31.9412 51.9044V33.2721H26.6176V30.6103H31.9412V11.9779C31.9412 9.04202 34.3288 6.65441 37.2647 6.65441ZM56.0009 9.03403L61.7955 3.23671L63.6774 5.11857L57.8827 10.9159C57.1747 11.6239 56.2458 11.9753 55.3141 11.9753C54.3825 11.9753 53.4562 11.6213 52.7482 10.9186L49.6339 7.80163L51.5158 5.91976L54.6301 9.03403C55.008 9.40934 55.6256 9.40934 56.0035 9.03403H56.0009ZM63.8824 12.4438V14.6397C63.8824 16.841 62.091 18.6324 59.8897 18.6324H49.2426C47.0414 18.6324 45.25 16.841 45.25 14.6397V3.99265C45.25 1.79137 47.0414 0 49.2426 0H57.5048L54.843 2.66176H49.2426C48.508 2.66176 47.9118 3.26066 47.9118 3.99265V14.6397C47.9118 15.3717 48.508 15.9706 49.2426 15.9706H59.8897C60.3688 15.9706 60.7734 15.7018 61.0077 15.3185L63.8824 12.4411V12.4438ZM56.0009 31.659L61.7955 25.8617L63.6774 27.7436L57.8827 33.5409C57.1747 34.2489 56.2458 34.6003 55.3141 34.6003C54.3825 34.6003 53.4562 34.2463 52.7482 33.5436L49.6339 30.4266L51.5158 28.5448L54.6301 31.659C55.008 32.0343 55.6256 32.0343 56.0035 31.659H56.0009ZM61.0077 37.9461L63.8824 35.0688V37.2647C63.8824 39.466 62.091 41.2574 59.8897 41.2574H49.2426C47.0414 41.2574 45.25 39.466 45.25 37.2647V26.6176C45.25 24.4164 47.0414 22.625 49.2426 22.625H57.5048L54.843 25.2868H49.2426C48.508 25.2868 47.9118 25.8857 47.9118 26.6176V37.2647C47.9118 37.9967 48.508 38.5956 49.2426 38.5956H59.8897C60.3688 38.5956 60.7734 38.3294 61.0077 37.9461ZM56.0009 54.284L61.7955 48.4867L63.6774 50.3686L57.8827 56.1659C57.1747 56.8739 56.2458 57.2253 55.3141 57.2253C54.3825 57.2253 53.4562 56.8713 52.7482 56.1686L49.6339 53.0516L51.5158 51.1698L54.6301 54.284C55.008 54.6593 55.6256 54.6593 56.0035 54.284H56.0009ZM61.0077 60.5711L63.8824 57.6938V59.8897C63.8824 62.091 62.091 63.8824 59.8897 63.8824H49.2426C47.0414 63.8824 45.25 62.091 45.25 59.8897V49.2426C45.25 47.0414 47.0414 45.25 49.2426 45.25H57.5048L54.843 47.9118H49.2426C48.508 47.9118 47.9118 48.5107 47.9118 49.2426V59.8897C47.9118 60.6217 48.508 61.2206 49.2426 61.2206H59.8897C60.3688 61.2206 60.7734 60.9518 61.0077 60.5685V60.5711Z" fill="#023E78"/>
</g>
<defs>
<clipPath id="clip0_3136_1318">
<rect width="63.8824" height="63.8824" fill="white"/>
</clipPath>
</defs>
</svg>
