<svg width="64" height="64" viewBox="0 0 64 64" fill="none" xmlns="http://www.w3.org/2000/svg">
<g clip-path="url(#clip0_3136_699)">
<path d="M29.2794 35.9332V39.9258H22.9018L20.791 50.5383C20.1762 53.6419 17.4292 55.8964 14.2644 55.8964H7.98529V63.8817H0V61.2199H5.32353V53.2346H14.2617C16.1596 53.2346 17.8099 51.8825 18.1799 50.0192L20.7165 37.2641H26.6176V36.2127C23.4821 29.2388 19.4495 17.3913 15.7843 12.8157L15.7923 12.8104C15.7816 12.7971 15.7656 12.7918 15.755 12.7785C11.7836 7.4789 6.19127 4.00264 0 2.70902V-0.000654112C7.01375 1.32224 13.3647 5.17648 17.8525 11.1442C21.7812 15.9753 29.2794 35.9332 29.2794 35.9332ZM63.8824 5.32288V29.2788H34.6029V11.1229L29.9315 5.42668C28.2546 3.26799 30.062 -0.149713 32.7424 -0.000654112H58.5588C61.4948 -0.000654112 63.8824 2.38695 63.8824 5.32288ZM61.2206 5.32288C61.2206 3.85358 60.0281 2.66111 58.5588 2.66111H32.7024C32.0157 2.7596 31.8028 3.20943 32.045 3.81099L37.2647 10.1726V26.6197H61.2206V5.32288ZM52.9265 8.37592L56.5998 23.9552H53.8661L52.6098 18.6317H45.6226L44.4036 23.9552H41.6726L45.2127 8.50635C45.5721 6.68038 47.2437 5.26432 49.0856 5.32288C50.9196 5.32288 52.5113 6.58721 52.9265 8.37592ZM51.9816 15.9699L50.334 8.98546C50.0279 7.64393 48.0289 7.63595 47.8053 9.10791L46.2322 15.9699H51.9816ZM58.5588 34.5996H39.9265C36.9905 34.5996 34.6029 36.9872 34.6029 39.9232V52.7555L29.8783 58.5236C28.2706 60.5891 30.1152 64.0521 32.7024 63.879H63.8824V39.9232C63.8824 36.9872 61.4948 34.5996 58.5588 34.5996ZM61.2206 61.2173H32.6625C31.9997 61.1294 31.8533 60.6556 31.9918 60.1419L37.2647 53.7084V39.9232C37.2647 38.4539 38.4572 37.2614 39.9265 37.2614H58.5588C60.0281 37.2614 61.2206 38.4539 61.2206 39.9232V61.2173ZM51.4945 54.3659C53.2885 55.2895 55.583 55.8937 58.5588 55.8937V58.5555C54.5076 58.5555 51.4945 57.5973 49.24 56.1759C46.9828 57.5946 43.975 58.5555 39.9265 58.5555V55.8937C42.9023 55.8937 45.1861 55.2869 46.9801 54.3712C44.9492 52.3403 43.8499 49.9128 43.2696 47.9058H46.0059C46.5649 49.5162 47.5711 51.3288 49.2639 52.8274C52.0269 50.3786 52.8786 47.07 53.1262 45.244H39.9265V42.5823H47.9118V39.9205H50.5735V42.5823H58.5588V45.244H55.7853C55.5191 47.2856 54.5875 51.2756 51.4945 54.3659Z" fill="#023E78"/>
</g>
<defs>
<clipPath id="clip0_3136_699">
<rect width="63.8824" height="63.8824" fill="white"/>
</clipPath>
</defs>
</svg>
