<svg width="64" height="64" viewBox="0 0 64 64" fill="none" xmlns="http://www.w3.org/2000/svg">
<g clip-path="url(#clip0_3136_834)">
<path d="M22.9311 18.6324H37.2674V21.2941H25.1324C24.5441 20.288 23.8042 19.3936 22.9311 18.6324ZM7.47157 15.9732C12.1297 8.85569 19.7689 3.86488 28.6326 2.8614C26.1651 5.62963 22.3668 10.506 19.5693 16.6467C20.4264 16.9581 21.2462 17.3441 21.9862 17.8525C25.2548 10.687 29.9848 5.27029 31.9412 3.2234C33.0777 4.41321 35.1592 6.76621 37.3419 9.90709C37.4297 8.68001 37.6853 7.50085 38.1564 6.42284C37.0917 5.02009 36.0855 3.80366 35.2471 2.8614C36.8228 3.03974 38.3427 3.3831 39.8333 3.80366C40.5174 2.99981 41.292 2.28379 42.1836 1.71151C38.9656 0.614868 35.5292 0 31.9438 0C20.1096 0 9.79796 6.48938 4.28278 16.0744C4.62881 16.0398 4.96951 15.9732 5.32087 15.9732H7.47157ZM63.7439 29.2821C63.8185 30.1631 63.885 31.0442 63.885 31.9438C63.885 49.2453 50.5762 63.885 31.9438 63.885C19.0822 63.885 8.00393 56.2298 2.94391 45.2527H5.89581C10.2744 53.7863 18.7042 59.903 28.6432 61.0236C26.4233 58.5295 23.0935 54.2893 20.3971 48.9392C21.2728 48.7183 22.1113 48.3643 22.8512 47.8559C26.0427 54.1084 30.1525 58.7851 31.9412 60.659C33.9694 58.5349 38.9922 52.8067 42.2635 45.2527H25.3879C25.8857 44.4408 26.2264 43.5411 26.4207 42.5909H43.3069C44.3397 39.655 45.0344 36.5034 45.1888 33.2241C46.0858 33.3652 47.0014 33.1736 47.8692 32.9447C47.7574 36.3304 47.1132 39.5671 46.1337 42.5909H59.1897C60.4859 39.285 61.2232 35.7023 61.2232 31.9438C61.2232 31.0468 61.1753 30.1578 61.0928 29.2821H63.7439ZM57.9892 45.2527H45.1755C42.3354 52.3542 37.9568 57.9786 35.2444 61.0236C45.1835 59.903 53.6106 53.7863 57.9892 45.2527ZM63.885 10.6497V23.9585H51.8698L47.4885 27.323C46.9429 27.7409 46.2934 27.9539 45.6413 27.9539C45.1835 27.9539 44.7203 27.85 44.2918 27.6371C43.2457 27.1207 42.5962 26.0773 42.5962 24.9115L42.5909 10.6604C42.5909 7.72444 44.9785 5.33684 47.9144 5.33418L58.5615 5.32885C59.9802 5.32885 61.3164 5.8825 62.3226 6.88598C63.3287 7.89213 63.885 9.22834 63.885 10.6497ZM61.2232 10.6497C61.2232 9.93903 60.9464 9.27093 60.4434 8.76785C59.9429 8.26744 59.2748 7.99062 58.5641 7.99062L47.9171 7.99594C46.4478 7.99594 45.2553 9.19107 45.2553 10.6604L45.2606 24.9115C45.2606 25.2894 45.5801 25.3959 45.8702 25.2096L50.9701 21.2968H61.2286V10.6471L61.2232 10.6497ZM12.0152 39.9265H0V26.6176C0 25.1963 0.553647 23.8601 1.55979 22.8539C2.56594 21.8504 3.90215 21.2968 5.32087 21.2968L15.9679 21.3021C18.9039 21.3021 21.2915 23.6897 21.2915 26.6283L21.2861 40.882C21.2861 42.0479 20.6367 43.0913 19.5906 43.605C19.162 43.818 18.6989 43.9218 18.2411 43.9218C17.5889 43.9218 16.9395 43.7088 16.3938 43.2909L12.0152 39.9265ZM2.66176 37.2647H12.9202L18.0201 41.1802C18.305 41.3612 18.6297 41.2574 18.6297 40.882L18.635 26.6283C18.635 25.159 17.4425 23.9639 15.9732 23.9639L5.32619 23.9585C4.6155 23.9585 3.9474 24.2354 3.44699 24.7358C2.94657 25.2389 2.66709 25.907 2.66709 26.6176V37.2647H2.66176Z" fill="#023E78"/>
</g>
<defs>
<clipPath id="clip0_3136_834">
<rect width="63.8824" height="63.8824" fill="white"/>
</clipPath>
</defs>
</svg>
