<svg width="64" height="64" viewBox="0 0 64 64" fill="none" xmlns="http://www.w3.org/2000/svg">
<g clip-path="url(#clip0_3136_343)">
<path d="M45.1994 33.5276V53.7969C45.226 56.0062 44.2199 58.3352 42.5377 60.3369V64.1405H39.8759V59.4132C41.2707 57.8215 42.6388 55.6442 42.5377 53.7996V33.5303C42.5377 32.7956 41.9414 32.1994 41.2068 32.1994C40.4721 32.1994 39.8759 32.7956 39.8759 33.5303V42.8464H37.2141V30.8685C37.2141 30.1338 36.6179 29.5376 35.8832 29.5376C35.1486 29.5376 34.5524 30.1338 34.5524 30.8685V42.8464H31.8906V28.2067C31.8906 27.4721 31.2944 26.8758 30.5597 26.8758C29.8251 26.8758 29.2288 27.4721 29.2288 28.2067V42.8464H26.5671V30.8685C26.5671 30.1338 25.9708 29.5376 25.2362 29.5376C24.5015 29.5376 23.9053 30.1338 23.9053 30.8685V54.0152L18.5658 48.6757C17.9323 48.162 17.2562 47.8346 16.3805 48.6757C15.7976 49.2586 15.7656 50.2488 16.3113 50.7945L26.5671 60.7761V64.1405H23.9053V61.8993L14.4401 52.6896C12.851 51.1006 12.8856 48.4069 14.496 46.7938C16.1622 45.0397 18.8267 45.1675 20.445 46.7938L21.2409 47.5897V30.8685C21.2409 28.6672 23.0322 26.8758 25.2335 26.8758C25.7579 26.8758 26.2583 26.9823 26.7188 27.1686C27.1793 25.4704 28.7178 24.2141 30.5571 24.2141C32.3963 24.2141 33.9348 25.4731 34.3953 27.1686C34.8558 26.9823 35.3536 26.8758 35.8806 26.8758C37.7199 26.8758 39.2584 28.1349 39.7189 29.8304C40.1793 29.6441 40.6771 29.5376 41.2041 29.5376C43.4054 29.5376 45.1968 31.329 45.1968 33.5303L45.1994 33.5276ZM15.92 33.7272L6.89131 24.4297C5.52848 23.176 5.00412 20.6526 4.887 18.5392L0 13.6149V17.392L2.33969 19.7503C2.52868 22.3535 3.42303 24.7171 4.98282 26.2849L15.9174 37.5469V33.7299L15.92 33.7272ZM27.8021 8.31801C28.574 8.32866 29.2421 9.06331 29.2288 9.88579C29.1809 11.1022 28.4782 11.3311 27.6424 11.4057L19.3803 11.387L27.5865 19.4256C28.5261 19.1035 29.5136 18.8905 30.5624 18.8905C30.6689 18.8905 30.7673 18.9198 30.8738 18.9225L25.9176 14.0648H27.6238C29.9369 14.1366 31.9146 12.332 31.8933 9.92572C31.9279 7.64459 30.0726 5.69085 27.8287 5.65625L14.6104 5.64028L8.99943 0H5.24634L13.5005 8.29938L27.8021 8.31801ZM58.5269 16.4417L58.5083 30.7434C58.4976 31.5153 57.763 32.1834 56.9405 32.1701C55.724 32.1222 55.4951 31.4195 55.4206 30.5837L55.4392 22.3216L49.1548 28.7364C49.6526 29.5562 50.0332 30.4506 50.2594 31.4115L52.7642 28.8562V30.5624C52.6923 32.8755 54.497 34.8531 56.9032 34.8319C59.1843 34.8665 61.1381 33.0112 61.1727 30.7673L61.1886 17.549L63.885 14.8686V11.1155L58.5269 16.4417ZM52.1333 0.242221L47.076 5.2836C44.4728 5.47259 42.1091 6.36694 40.5413 7.92673L33.8523 14.4214L35.7448 16.29L42.3939 9.83256C43.6476 8.46974 46.171 7.94537 48.2844 7.82825L55.9104 0.242221H52.1333Z" fill="#023E78"/>
</g>
<defs>
<clipPath id="clip0_3136_343">
<rect width="63.8824" height="63.8824" fill="white"/>
</clipPath>
</defs>
</svg>
