<svg width="64" height="64" viewBox="0 0 64 64" fill="none" xmlns="http://www.w3.org/2000/svg">
<g clip-path="url(#clip0_3136_63)">
<path d="M31.941 13.3088C35.6115 13.3088 38.5954 10.3223 38.5954 6.65441C38.5954 2.9865 35.6115 0 31.941 0C28.2704 0 25.2865 2.9865 25.2865 6.65441C25.2865 10.3223 28.2704 13.3088 31.941 13.3088ZM31.941 2.66176C34.1422 2.66176 35.9336 4.45313 35.9336 6.65441C35.9336 8.85569 34.1422 10.6471 31.941 10.6471C29.7397 10.6471 27.9483 8.85569 27.9483 6.65441C27.9483 4.45313 29.7397 2.66176 31.941 2.66176ZM63.8821 14.6397V49.8575C63.8821 51.5025 63.2726 53.0889 62.1653 54.3186L53.6556 63.8824H50.0782L60.1903 52.5352C60.8557 51.7979 61.2204 50.845 61.2204 49.8575V14.6397C61.2204 12.4384 59.429 10.6471 57.2277 10.6471C55.0264 10.6471 53.2351 12.4384 53.2351 14.6397V38.5956H53.2164C53.2164 40.1128 52.7107 41.63 51.6806 42.8571L43.4318 51.3907L41.518 49.5408L49.7029 41.079C50.3018 40.3657 50.5893 39.45 50.5707 38.5317V38.5051C50.544 37.5841 50.2087 36.6605 49.5539 35.9312C48.8432 35.1406 47.8663 34.6695 46.8069 34.6109C45.7555 34.571 44.7254 34.9117 43.9322 35.6224L33.6631 45.0717C34.2514 46.0805 34.6001 47.2224 34.6001 48.4095V63.885H31.9383V48.4095C31.9383 47.2969 31.4672 46.2242 30.65 45.4709L19.9337 35.6117C19.1565 34.9117 18.137 34.571 17.0723 34.6136C16.013 34.6721 15.0334 35.1406 14.3254 35.9338C13.0105 37.4005 12.9732 39.6443 14.2402 41.1509L22.3639 49.5434L20.4501 51.3934L12.2652 42.9316C11.2031 41.6699 10.6814 40.1288 10.6761 38.6009H10.6495V14.6397C10.6495 12.4384 8.85813 10.6471 6.65685 10.6471C4.45557 10.6471 2.66421 12.4384 2.66421 14.6397V49.8575C2.66421 50.845 3.02887 51.7979 3.69431 52.5352L13.8064 63.8824H10.2289L1.71928 54.3186C0.611986 53.0889 0.00244141 51.5025 0.00244141 49.8575V14.6397C0.00244141 10.9718 2.98628 7.98529 6.65685 7.98529C10.3274 7.98529 13.3113 10.9718 13.3113 14.6397V33.2694C15.7894 31.4062 19.3269 31.4887 21.7278 33.6341L31.9436 43.0327L42.1462 33.6447C43.4824 32.4469 45.1859 31.832 46.9586 31.9492C48.2895 32.021 49.5379 32.4789 50.576 33.2641V14.6397C50.576 10.9718 53.5598 7.98529 57.2304 7.98529C60.901 7.98529 63.8821 10.9718 63.8821 14.6397ZM23.9557 28.7098C23.1092 28.1402 22.2255 27.6504 21.2939 27.3204V22.625C21.2939 18.9571 24.2777 15.9706 27.9483 15.9706H35.9336C39.6042 15.9706 42.588 18.9571 42.588 22.625V27.3337C41.6564 27.6637 40.7754 28.1482 39.9263 28.7178V22.625C39.9263 20.4211 38.1375 18.6324 35.9336 18.6324H27.9483C25.7444 18.6324 23.9557 20.4211 23.9557 22.625V28.7098Z" fill="#023E78"/>
</g>
<defs>
<clipPath id="clip0_3136_63">
<rect width="63.8824" height="63.8824" fill="white"/>
</clipPath>
</defs>
</svg>
