<svg width="64" height="64" viewBox="0 0 64 64" fill="none" xmlns="http://www.w3.org/2000/svg">
<g clip-path="url(#clip0_3136_780)">
<path d="M15.9706 13.3088C18.9066 13.3088 21.2942 10.9212 21.2942 7.98529C21.2942 5.04937 18.9066 2.66176 15.9706 2.66176C13.0347 2.66176 10.6471 5.04937 10.6471 7.98529C10.6471 10.9212 13.0347 13.3088 15.9706 13.3088ZM15.9706 5.32353C17.4373 5.32353 18.6324 6.516 18.6324 7.98529C18.6324 9.45459 17.4373 10.6471 15.9706 10.6471C14.504 10.6471 13.3089 9.45459 13.3089 7.98529C13.3089 6.516 14.504 5.32353 15.9706 5.32353ZM45.2501 63.8824H63.8824V55.8971H45.2501V63.8824ZM47.9118 58.5588H61.2206V61.2206H47.9118V58.5588ZM45.2501 53.2353H63.8824V45.25H45.2501V53.2353ZM47.9118 47.9118H61.2206V50.5735H47.9118V47.9118ZM45.2501 42.5882H63.8824V34.6029H45.2501V42.5882ZM47.9118 37.2647H61.2206V39.9265H47.9118V37.2647ZM21.3554 63.8824H39.9877V55.8971H21.3554V63.8824ZM24.0172 58.5588H37.326V61.2206H24.0172V58.5588ZM21.3554 53.2353H39.9877V45.25H21.3554V53.2353ZM24.0172 47.9118H37.326V50.5735H24.0172V47.9118ZM0.0612793 63.8824H16.0319V55.8971H0.0612793V63.8824ZM2.72304 58.5588H13.3701V61.2206H2.72304V58.5588ZM28.1828 42.5882H30.9883L27.9459 31.9412H21.2915V18.6324H31.9386V15.9706H14.0169C11.9407 15.9706 9.95506 16.9608 8.70137 18.619L0.268897 29.8091L2.39565 31.4115L10.6445 20.4636L10.6311 33.3652L9.31357 41.8962L5.32093 53.2353H8.36598L11.9753 42.5882L13.1172 34.6029H26.0295L28.1828 42.5882ZM13.3089 31.9412V18.7149C13.5431 18.6723 13.7774 18.6324 14.0169 18.6324H18.6324V31.9412H13.3089ZM60.7389 0L45.6813 9.33215L61.1168 18.6324H61.2206V31.9412H63.8824V0H60.7389ZM61.2206 15.5873L50.7865 9.30021L61.2206 2.83212V15.5873Z" fill="#023E78"/>
</g>
<defs>
<clipPath id="clip0_3136_780">
<rect width="63.8824" height="63.8824" fill="white"/>
</clipPath>
</defs>
</svg>
